<svg id="Слой_1" data-name="Слой 1" xmlns="http://www.w3.org/2000/svg" viewBox="0 0 200.2 13.28"><defs><style>.cls-1,.cls-2{fill-opacity:0.3;}.cls-2,.cls-4{fill:#fff;}.cls-3{fill-opacity:0.3;}</style></defs><title>arrows</title><rect class="cls-1" x="95.19" y="1.85" width="9.82" height="9.57" rx="4.78" ry="4.78"/><rect class="cls-2" x="61.44" y="1.71" width="9.82" height="9.57" rx="4.78" ry="4.78"/><rect class="cls-3" x="128.93" y="1.85" width="9.82" height="9.57" rx="4.78" ry="4.78"/><path class="cls-4" d="M195.11,1l6.81,6.64-6.81,6.64-1-.95L200,7.67,194.13,2Z" transform="translate(-1.72 -1.03)"/><path class="cls-4" d="M200.1,8.34H158.52V7H200.1Z" transform="translate(-1.72 -1.03)"/><path class="cls-4" d="M9.51,2,3.67,7.67l5.84,5.69-1,.95L1.72,7.67,8.54,1Z" transform="translate(-1.72 -1.03)"/><path class="cls-4" d="M3.54,7H45.12V8.34H3.54Z" transform="translate(-1.72 -1.03)"/></svg>