<svg id="Слой_1" data-name="Слой 1" xmlns="http://www.w3.org/2000/svg" viewBox="0 0 125.62 29"><defs><style>.cls-1{fill:#e3b873;}.cls-2{fill:none;stroke:#e3b873;stroke-linecap:round;}</style></defs><title>Монтажная область 1</title><path class="cls-1" d="M81.18,9.77,56.42.83a.62.62,0,0,0-.79.35h0L52.9,8.45a.59.59,0,0,0,.36.76h0l2.87,1-.63,1.68a.59.59,0,0,0,.36.76l5.74,2.05-.42,1.12A2.32,2.32,0,0,0,62,18.6v3H53.82a3,3,0,0,0-2.19-1.73V18.66a.6.6,0,0,0-.61-.6H48.56a.6.6,0,0,0-.61.6V28.2a.6.6,0,0,0,.61.6H51a.6.6,0,0,0,.61-.6V26.95a3.05,3.05,0,0,0,2.19-1.73H62v.6a1.83,1.83,0,0,0,3.67,0v-6.6a2.38,2.38,0,0,0,1.2-1.3l.42-1.12,5.17,1.85a.62.62,0,0,0,.21,0,.61.61,0,0,0,.57-.39l.23-.61a3.66,3.66,0,0,0,4.28-2.85,3.49,3.49,0,0,0-.26-2.12l3.71-1.85a.59.59,0,0,0,.27-.8.61.61,0,0,0-.33-.29ZM63.27,19.15l.51.18a2.49,2.49,0,0,0,.72.14v2.18H63.27ZM50.41,27.6H49.17V19.26h1.24ZM52.86,24a1.79,1.79,0,0,1-1.22,1.69V21.15a1.79,1.79,0,0,1,1.22,1.69Zm1.24-1.19H64.5V24H54.1Zm9.78,3.57a.6.6,0,0,1-.61-.6v-.6H64.5v.6A.6.6,0,0,1,63.88,26.41Zm2.31-10-.42,1.12a1.23,1.23,0,0,1-1.57.71l-1.15-.41a1.18,1.18,0,0,1-.73-1.53h0l.42-1.12,3.1,1.11Zm6.16.94-15.5-5.54.42-1.12,9.18,3.29a.63.63,0,0,0,.63-.13l1.72-1.57L73.62,14ZM76.49,15a2.46,2.46,0,0,1-2.54,1.55L74.89,14l1.54-.77A2.31,2.31,0,0,1,76.49,15Zm-2.06-2.06-.1,0-5.45-2a.62.62,0,0,0-.63.13L66.53,12.7,54.25,8.3l2.32-6.15,22.88,8.26Z"/><path class="cls-2" d="M44,8.7l-.53,1.42m2.82-.58L45.72,11m2.75-.59-.53,1.42"/><path class="cls-1" d="M4.31,14.79h31.3a.77.77,0,0,1,.77.77h0a.77.77,0,0,1-.77.77H4.31a.77.77,0,0,1-.77-.77h0A.77.77,0,0,1,4.31,14.79Z"/><path class="cls-1" d="M89.72,15.56H121a.77.77,0,0,1,.77.77h0a.77.77,0,0,1-.77.77H89.72a.77.77,0,0,1-.77-.77h0A.77.77,0,0,1,89.72,15.56Z"/></svg>