<svg id="Слой_1" data-name="Слой 1" xmlns="http://www.w3.org/2000/svg" viewBox="0 0 125.62 29"><defs><style>.cls-1{fill:#e3b873;}</style></defs><title>hands</title><path class="cls-1" d="M4.31,14.79h31.3a.77.77,0,0,1,.77.77h0a.77.77,0,0,1-.77.77H4.31a.77.77,0,0,1-.77-.77h0A.77.77,0,0,1,4.31,14.79Z"/><path class="cls-1" d="M89.72,15.56H121a.77.77,0,0,1,.77.77h0a.77.77,0,0,1-.77.77H89.72a.77.77,0,0,1-.77-.77h0A.77.77,0,0,1,89.72,15.56Z"/><path class="cls-1" d="M70.73,8,64.55,6.11a4.37,4.37,0,0,0-1.41-.17v0H55.63L42.31,1.5l0,18.71,3.82,1.91,2.26-5.53,3.31,1.32.86-2.14L53.84,17l-1.16,1.16a2.16,2.16,0,0,0,1.45,3.68,2.16,2.16,0,0,0,2.08,2.08A2.16,2.16,0,0,0,58.29,26,2.16,2.16,0,0,0,62,27.46l1.16-1.16.47.47a2.16,2.16,0,0,0,3.68-1.45,2.16,2.16,0,0,0,2.08-2.08,2.16,2.16,0,0,0,2.08-2.08A2.16,2.16,0,0,0,73.53,19a2.21,2.21,0,0,0,0-.29l1-1,.8,1.61,4.35-2.18,2.63,5,3-2V2.24ZM45.45,20.21l-1.72-.86,0-15.93,7.59,2.52ZM51,16.11l-2-.8,3.65-8.92,2,.66Zm2.46,3.59a.78.78,0,0,1,.23-.55l1.22-1.22A.78.78,0,0,1,56,19l-1.22,1.22a.78.78,0,0,1-1.33-.55Zm2.08,2.08a.78.78,0,0,1,.23-.55L57,20a.78.78,0,0,1,1.1,1.1l-1.22,1.22a.78.78,0,0,1-1.33-.55Zm2.08,2.08a.78.78,0,0,1,.23-.55L59,22.09a.78.78,0,0,1,1.1,1.1L58.92,24.4a.78.78,0,0,1-1.33-.55Zm4.62,1.41L61,26.48a.78.78,0,0,1-1.1-1.1l1.22-1.22a.78.78,0,0,1,1.1,1.1Zm9.15-5.48a.78.78,0,0,1-.55-.23L65,13.75l-1,1,5.81,5.81a.78.78,0,0,1-1.1,1.1l-5.81-5.81-1,1,5.81,5.81a.78.78,0,0,1-1.1,1.1L60.86,17.9l-1,1,5.81,5.81a.78.78,0,0,1-1.1,1.1L63.8,25a2.06,2.06,0,0,0,0-.29,2.16,2.16,0,0,0-2.09-2.15,2.16,2.16,0,0,0-2.08-2.08,2.16,2.16,0,0,0-2.08-2.08,2.16,2.16,0,0,0-2.15-2.09l-.29,0-2-2L56,7.31h4.09L57.53,9.85a2.16,2.16,0,0,0,1.53,3.69,2.18,2.18,0,0,0,1.53-.63l1.84-1.84a1.07,1.07,0,0,1,1.43,0l1.62,1.48a7.83,7.83,0,0,0,1.78,1.23l4.66,4.7a.78.78,0,0,1-.55,1.33Zm1.47-2.37L70,14.54c.25,0,.51,0,.77,0V13.2a6.42,6.42,0,0,1-4.35-1.69L64.79,10a2.49,2.49,0,0,0-3.34.07l-1.84,1.84a.79.79,0,0,1-.55.23.78.78,0,0,1-.55-1.33l2.64-2.64a3,3,0,0,1,3-.76l6.12,1.84,3.57,7.14Zm3.08.05-4.2-8.4,3.07-1.2L79,15.92Zm8,1.95-1.13.75L76.08,7.35l7.84-3.08Z"/></svg>