<svg id="Слой_1" data-name="Слой 1" xmlns="http://www.w3.org/2000/svg" viewBox="0 0 115 113"><defs><style>.cls-1{fill:#e3b873;}.cls-2{fill:#fff;stroke:#fff;stroke-width:0.1px;}</style></defs><title>pig_in_circle</title><ellipse class="cls-1" cx="56.32" cy="46.44" rx="36.95" ry="36"/><path class="cls-2" d="M74.2,43.72h0a13,13,0,0,0-3-5.88,14,14,0,0,0-5.36-3.72,6.54,6.54,0,0,0-5.21-5h0a.73.73,0,0,0-.56.16.66.66,0,0,0-.24.51v3.3H57.54a5,5,0,0,0-9.4.13,14.16,14.16,0,0,0-8.41,4.23l0,0,0,0a12.86,12.86,0,0,0-3.61,8.9c0,7.39,4,13.4,5.27,15.07a2.13,2.13,0,0,0,1.71.84h2.78a2.05,2.05,0,0,0,2.1-2v-.8a14.82,14.82,0,0,0,2.09.15h6.27v.65a2.05,2.05,0,0,0,2.1,2h3.06a2.09,2.09,0,0,0,2.05-1.58l.33-1.46a13.8,13.8,0,0,0,9.44-7.56h2.55a1.37,1.37,0,0,0,1.4-1.33v-5.3a1.29,1.29,0,0,0-.41-.94,1.43,1.43,0,0,0-1-.39H74.2Zm1.66,6.59h0v0h-2a12.61,12.61,0,0,0,.62-3.27.68.68,0,0,0-.67-.7.69.69,0,0,0-.74.64,12.05,12.05,0,0,1-8.85,10.77l.89-4a.67.67,0,0,0-.54-.8.7.7,0,0,0-.84.52l-1.56,6.9a.69.69,0,0,1-.68.52H58.44a.67.67,0,0,1-.69-.65V57.65a.7.7,0,0,0-1.41,0v.65H50.07A13.32,13.32,0,0,1,48,58.14V53.67a.7.7,0,0,0-1.41,0V60.3a.67.67,0,0,1-.69.65H43.1a.69.69,0,0,1-.56-.27h0c-1.18-1.59-5-7.3-5-14.29a11.56,11.56,0,0,1,3.25-8l0,0,0,0A12.72,12.72,0,0,1,48,34.64a4.45,4.45,0,0,0,.2,1.14H48a.67.67,0,1,0,0,1.34h9.76a.67.67,0,1,0,0-1.34h-.19a4.44,4.44,0,0,0,.2-1.31h2.08v1.32a.7.7,0,0,0,1.41,0V30.71a5.14,5.14,0,0,1,2.16,1.53,6.38,6.38,0,0,1,1.31,4.2.7.7,0,0,0,1.41,0c0-.24,0-.49,0-.75a12.56,12.56,0,0,1,4,3A11.68,11.68,0,0,1,72.82,44a1.39,1.39,0,0,0,1.37,1.08h1.67Zm-23-19.15a3.4,3.4,0,0,1,3.48,3.3A3.16,3.16,0,0,1,56,35.78H49.67a3.16,3.16,0,0,1-.29-1.32A3.4,3.4,0,0,1,52.86,31.16Z"/><path class="cls-2" d="M55.65,46.67a8.11,8.11,0,0,0-2.32-.92V42.66a4,4,0,0,1,1.5.46,1.6,1.6,0,0,1,.43.35.57.57,0,0,1,.15.36.7.7,0,0,0,1.41,0,2.1,2.1,0,0,0-1-1.69,5.24,5.24,0,0,0-2.47-.83v0a.7.7,0,0,0-1.41,0v0a5.24,5.24,0,0,0-2.47.83,2.1,2.1,0,0,0-1,1.69,2.32,2.32,0,0,0,1.17,2,8.11,8.11,0,0,0,2.32.92v3.08a4,4,0,0,1-1.5-.46A1.6,1.6,0,0,1,50,49a.57.57,0,0,1-.15-.36.7.7,0,0,0-1.41,0,2.1,2.1,0,0,0,1,1.69,5.24,5.24,0,0,0,2.47.84v0a.7.7,0,0,0,1.41,0v0a5.24,5.24,0,0,0,2.47-.84,2.1,2.1,0,0,0,1-1.69A2.32,2.32,0,0,0,55.65,46.67Zm-3.73-4v2.7a5.49,5.49,0,0,1-1.61-.7,1,1,0,0,1-.47-.83.57.57,0,0,1,.15-.36,1.6,1.6,0,0,1,.43-.35A4,4,0,0,1,51.92,42.66Zm2.9,6.72a4,4,0,0,1-1.5.46v-2.7a5.49,5.49,0,0,1,1.61.7,1,1,0,0,1,.47.83.57.57,0,0,1-.15.36A1.6,1.6,0,0,1,54.83,49.38Z"/><path class="cls-2" d="M57,53a.69.69,0,0,0-.7.67V55a.7.7,0,0,0,1.41,0V53.67A.69.69,0,0,0,57,53Z"/><path class="cls-2" d="M64.31,42.89a3,3,0,0,1,5.44,0c-.81-.15-1.52-.23-2.08-.28-.89-.08-1.3-.06-1.57.2a4.8,4.8,0,0,0-.48.55c-.16.22-.21.34-.36.41a.76.76,0,0,1-.54,0c-.13,0-.43-.13-.5-.35A.86.86,0,0,1,64.31,42.89Z"/><path class="cls-2" d="M68.16,43a.93.93,0,0,0,.59.85.85.85,0,0,0,.83-.14.81.81,0,0,0,.18-.9"/><path class="cls-2" d="M67.64,42.39c0,.06-.08.07-.08.12s0,.08.06.09A4.39,4.39,0,0,1,68,43c.07.09,0,.07.18.27s.21.3.27.32c.25.07.55-.29.67-.44s.26-.31.24-.46-.45-.41-.63-.47a1.63,1.63,0,0,0-.74-.07s-.27,0-.36.08S67.68,42.32,67.64,42.39Z"/></svg>