<svg id="Слой_1" data-name="Слой 1" xmlns="http://www.w3.org/2000/svg" viewBox="0 0 118.24 28"><defs><style>.cls-1{fill:#e3b873;}</style></defs><title>tools</title><path class="cls-1" d="M71.85,21.14a3.85,3.85,0,0,0-2-.66,35.75,35.75,0,0,1-5.34-3.91l-3.08-3,1.87-2a3.26,3.26,0,0,0,1.12.38,3.74,3.74,0,0,0,.67,0,1,1,0,0,1,.86.33.74.74,0,0,0-.29.61,1,1,0,0,0,.29.7l1.68,1.63a1.32,1.32,0,0,0,1,.42,1.21,1.21,0,0,0,1-.47L73,11.86a1.26,1.26,0,0,0,.43-1,1.33,1.33,0,0,0-.43-1L71.37,8.27A1,1,0,0,0,70.7,8a1.22,1.22,0,0,0-.67.28c-.38-.33-.38-.42-.38-.79a2,2,0,0,0-.1-.7,3.24,3.24,0,0,0-1-1.82L66.87,3.28a7.79,7.79,0,0,0-2.78-2c-2.78-1.26-5.6-1-9.72.79a.42.42,0,0,0-.29.51.46.46,0,0,0,.48.37h.62c2.11,0,3.21,0,5.12,1.87a2.17,2.17,0,0,1,.11,3,.44.44,0,0,0-.26.13L58,10.26,56.43,8.69a20.31,20.31,0,0,1-4-5.16,3.65,3.65,0,0,0-1.11-2.44A4,4,0,0,0,48.25,0a.61.61,0,0,0-.34.23.41.41,0,0,0,0,.47L49.25,3A1.69,1.69,0,0,1,47.62,4L46.24,1.74a.43.43,0,0,0-.38-.23.35.35,0,0,0-.38.19,3.62,3.62,0,0,0,1,5.08,3.86,3.86,0,0,0,1.94.69h0a20.75,20.75,0,0,1,5.31,3.87L55.5,13,45.33,24.08a2,2,0,0,0-.57,1.4,1.84,1.84,0,0,0,.57,1.35l.67.65a2.09,2.09,0,0,0,1.34.51,2,2,0,0,0,1.39-.56L58.89,16.35l3,2.88a37.8,37.8,0,0,1,4,5.22A3.65,3.65,0,0,0,67,26.83a3.82,3.82,0,0,0,2.68,1.07H70a.49.49,0,0,0,.38-.23.41.41,0,0,0,0-.47L69,24.92A1.76,1.76,0,0,1,70.7,24L72,26.23a.43.43,0,0,0,.38.23.65.65,0,0,0,.43-.23A3.66,3.66,0,0,0,71.85,21.14ZM60.93,4.07A6.43,6.43,0,0,0,57,2a9,9,0,0,1,6.75.09,6.57,6.57,0,0,1,2.54,1.82L68,5.61a2.17,2.17,0,0,1,.67,1.31,2.61,2.61,0,0,1,0,.56,1.69,1.69,0,0,0,.62,1.45A1.07,1.07,0,0,0,70,9.2a.81.81,0,0,0,.67-.28l1.68,1.63a.44.44,0,0,1,0,.65L69,14.52a.47.47,0,0,1-.67,0l-1.68-1.63a.64.64,0,0,0,.24-.65,1,1,0,0,0-.29-.7,1.78,1.78,0,0,0-1.48-.61,2.82,2.82,0,0,1-.57,0,2.15,2.15,0,0,1-1.34-.65l-2.06-2A3,3,0,0,0,60.93,4.07ZM45.9,3l1,1.68a.49.49,0,0,0,.38.23h.24a2.74,2.74,0,0,0,2.59-1.45l.1-.23a.34.34,0,0,0,0-.42L49.16,1a2.84,2.84,0,0,1,2.36,2.68.47.47,0,0,0,0,.12,2.65,2.65,0,0,1-.08.63,2.86,2.86,0,0,1-1.22,1.66A3,3,0,0,1,47,6,2.8,2.8,0,0,1,45.9,3Zm8.52,7.74A21,21,0,0,0,50,7.24a5.77,5.77,0,0,0,.77-.37,3.69,3.69,0,0,0,1.48-1.82,21.91,21.91,0,0,0,3.49,4.29l1.64,1.6-1.29,1.4Zm-6.37,16a1,1,0,0,1-1.39,0L46,26.18a.91.91,0,0,1-.29-.65,1,1,0,0,1,.34-.75l.27-.3.69.67a.47.47,0,0,0,.67-.65l-.72-.71.63-.69.76.74A.47.47,0,0,0,49,23.2l-.8-.78L60.53,9l2,2-2,2.15a.49.49,0,0,0-.16.11l-1.91,2.1a.48.48,0,0,0-.12.18Zm11.49-11.1,1.31-1.43,3.09,3a27.8,27.8,0,0,0,4.5,3.4,3.67,3.67,0,0,0-.86.42,3.59,3.59,0,0,0-1.31,1.42v0l-.05.1-.07.15,0,.1h0l0,.11-.79-1.1.64-.63a.44.44,0,0,0,0-.65.47.47,0,0,0-.67,0l-.53.52-.58-.74.44-.43a.44.44,0,0,0,0-.65.47.47,0,0,0-.67,0l-.37.36q-.53-.62-1-1.06ZM72.38,25l-1-1.68a.49.49,0,0,0-.38-.23h-.24a2.66,2.66,0,0,0-2.59,1.45l-.1.23a.34.34,0,0,0,0,.42l1.05,1.77a2.85,2.85,0,0,1-1.53-.79,2.88,2.88,0,0,1-.83-1.85.47.47,0,0,0,0-.11,2.76,2.76,0,0,1,.53-1.61,2.94,2.94,0,0,1,.76-.72,2.72,2.72,0,0,1,1.58-.47,2.92,2.92,0,0,1,1.63.51A2.8,2.8,0,0,1,72.38,25Z"/><path class="cls-1" d="M.77,14h31.3a.77.77,0,0,1,.77.77h0a.77.77,0,0,1-.77.77H.77A.77.77,0,0,1,0,14.77H0A.77.77,0,0,1,.77,14Z"/><path class="cls-1" d="M86.17,14.77h31.3a.77.77,0,0,1,.77.77h0a.77.77,0,0,1-.77.77H86.17a.77.77,0,0,1-.77-.77h0A.77.77,0,0,1,86.17,14.77Z"/></svg>